<svg xmlns="http://www.w3.org/2000/svg" xmlns:xlink="http://www.w3.org/1999/xlink" width="2000" zoomAndPan="magnify" viewBox="0 0 1500 1499.999933" height="2000" preserveAspectRatio="xMidYMid meet" version="1.0"><defs><g/><clipPath id="89b152fe8e"><path d="M 502.652344 574.148438 L 1416.183594 574.148438 L 1416.183594 880.425781 L 502.652344 880.425781 Z M 502.652344 574.148438 " clip-rule="nonzero"/></clipPath><clipPath id="06b6494c7d"><path d="M 0.652344 0.148438 L 914.183594 0.148438 L 914.183594 306.425781 L 0.652344 306.425781 Z M 0.652344 0.148438 " clip-rule="nonzero"/></clipPath><clipPath id="df83c68b70"><rect x="0" width="915" y="0" height="307"/></clipPath></defs><g clip-path="url(#89b152fe8e)"><g transform="matrix(1, 0, 0, 1, 502, 574)"><g clip-path="url(#df83c68b70)"><g clip-path="url(#06b6494c7d)"><path fill="#ffde59" d="M 0.652344 0.148438 L 914.699219 0.148438 L 914.699219 306.425781 L 0.652344 306.425781 Z M 0.652344 0.148438 " fill-opacity="1" fill-rule="nonzero"/></g></g></g></g><g fill="#2b2b2b" fill-opacity="1"><g transform="translate(104.682971, 850.285683)"><g/></g></g><g fill="#2b2b2b" fill-opacity="1"><g transform="translate(149.647811, 850.285683)"><g><path d="M 84.015625 -213.28125 C 95.648438 -213.28125 104.617188 -212.046875 110.921875 -209.578125 C 117.234375 -207.117188 122.660156 -204.507812 127.203125 -201.75 C 129.566406 -200.363281 131.488281 -199.328125 132.96875 -198.640625 C 134.445312 -197.953125 135.875 -197.609375 137.25 -197.609375 C 139.226562 -197.609375 140.660156 -198.691406 141.546875 -200.859375 C 142.429688 -203.023438 143.171875 -206.28125 143.765625 -210.625 L 150.5625 -210.625 C 150.363281 -206.875 150.117188 -202.382812 149.828125 -197.15625 C 149.535156 -191.925781 149.335938 -185.070312 149.234375 -176.59375 C 149.140625 -168.113281 149.09375 -156.972656 149.09375 -143.171875 L 142.28125 -143.171875 C 141.5 -153.429688 139.132812 -163.390625 135.1875 -173.046875 C 131.238281 -182.710938 125.664062 -190.648438 118.46875 -196.859375 C 111.269531 -203.078125 102.445312 -206.1875 92 -206.1875 C 82.53125 -206.1875 74.738281 -203.519531 68.625 -198.1875 C 62.507812 -192.863281 59.453125 -185.472656 59.453125 -176.015625 C 59.453125 -168.117188 61.425781 -161.359375 65.375 -155.734375 C 69.320312 -150.117188 75.085938 -144.648438 82.671875 -139.328125 C 90.265625 -134.003906 99.488281 -127.59375 110.34375 -120.09375 C 119.800781 -113.988281 128.273438 -107.878906 135.765625 -101.765625 C 143.265625 -95.648438 149.28125 -88.742188 153.8125 -81.046875 C 158.351562 -73.359375 160.625 -64.191406 160.625 -53.546875 C 160.625 -40.523438 157.222656 -29.773438 150.421875 -21.296875 C 143.617188 -12.816406 134.691406 -6.457031 123.640625 -2.21875 C 112.597656 2.019531 100.472656 4.140625 87.265625 4.140625 C 75.035156 4.140625 65.269531 2.957031 57.96875 0.59375 C 50.675781 -1.769531 44.566406 -4.234375 39.640625 -6.796875 C 35.296875 -9.554688 31.941406 -10.9375 29.578125 -10.9375 C 27.609375 -10.9375 26.175781 -9.851562 25.28125 -7.6875 C 24.394531 -5.519531 23.660156 -2.265625 23.078125 2.078125 L 16.265625 2.078125 C 16.660156 -2.660156 16.90625 -8.179688 17 -14.484375 C 17.101562 -20.796875 17.203125 -29.03125 17.296875 -39.1875 C 17.398438 -49.34375 17.453125 -62.210938 17.453125 -77.796875 L 24.25 -77.796875 C 25.039062 -64.785156 27.257812 -52.609375 30.90625 -41.265625 C 34.5625 -29.921875 40.179688 -20.796875 47.765625 -13.890625 C 55.359375 -6.992188 65.46875 -3.546875 78.09375 -3.546875 C 85 -3.546875 91.160156 -4.773438 96.578125 -7.234375 C 102.003906 -9.703125 106.394531 -13.398438 109.75 -18.328125 C 113.101562 -23.265625 114.78125 -29.382812 114.78125 -36.6875 C 114.78125 -44.96875 112.851562 -52.160156 109 -58.265625 C 105.15625 -64.378906 99.929688 -70.097656 93.328125 -75.421875 C 86.722656 -80.753906 79.082031 -86.179688 70.40625 -91.703125 C 61.132812 -97.816406 52.457031 -103.929688 44.375 -110.046875 C 36.289062 -116.160156 29.832031 -123.160156 25 -131.046875 C 20.164062 -138.929688 17.75 -148.296875 17.75 -159.140625 C 17.75 -171.566406 20.851562 -181.773438 27.0625 -189.765625 C 33.28125 -197.753906 41.46875 -203.671875 51.625 -207.515625 C 61.78125 -211.359375 72.578125 -213.28125 84.015625 -213.28125 Z M 84.015625 -213.28125 "/></g></g></g><g fill="#2b2b2b" fill-opacity="1"><g transform="translate(298.438475, 850.285683)"><g><path d="M 198.484375 -209.4375 L 198.484375 -203.515625 C 192.179688 -202.722656 187.398438 -201.09375 184.140625 -198.625 C 180.890625 -196.164062 178.769531 -192.273438 177.78125 -186.953125 C 176.789062 -181.628906 176.296875 -174.132812 176.296875 -164.46875 L 176.296875 -86.078125 C 176.296875 -73.265625 175.410156 -61.53125 173.640625 -50.875 C 171.867188 -40.226562 168.710938 -31.0625 164.171875 -23.375 C 159.046875 -14.894531 151.550781 -8.1875 141.6875 -3.25 C 131.832031 1.675781 119.3125 4.140625 104.125 4.140625 C 95.050781 4.140625 85.78125 3.101562 76.3125 1.03125 C 66.851562 -1.039062 58.375 -4.9375 50.875 -10.65625 C 44.5625 -15.976562 39.726562 -21.988281 36.375 -28.6875 C 33.03125 -35.394531 30.765625 -43.332031 29.578125 -52.5 C 28.398438 -61.675781 27.8125 -72.570312 27.8125 -85.1875 L 27.8125 -178.078125 C 27.8125 -185.378906 27.265625 -190.753906 26.171875 -194.203125 C 25.085938 -197.648438 22.96875 -200.015625 19.8125 -201.296875 C 16.664062 -202.578125 11.9375 -203.316406 5.625 -203.515625 L 5.625 -209.4375 C 10.550781 -209.238281 17.203125 -209.039062 25.578125 -208.84375 C 33.960938 -208.644531 42.691406 -208.546875 51.765625 -208.546875 C 60.835938 -208.546875 69.5625 -208.644531 77.9375 -208.84375 C 86.320312 -209.039062 93.273438 -209.238281 98.796875 -209.4375 L 98.796875 -203.515625 C 92.097656 -203.316406 87.019531 -202.578125 83.5625 -201.296875 C 80.113281 -200.015625 77.796875 -197.648438 76.609375 -194.203125 C 75.429688 -190.753906 74.84375 -185.378906 74.84375 -178.078125 L 74.84375 -66.5625 C 74.84375 -56.695312 75.484375 -47.96875 76.765625 -40.375 C 78.046875 -32.78125 80.210938 -26.46875 83.265625 -21.4375 C 86.328125 -16.414062 90.519531 -12.625 95.84375 -10.0625 C 101.164062 -7.5 107.769531 -6.21875 115.65625 -6.21875 C 129.46875 -6.21875 140.265625 -9.46875 148.046875 -15.96875 C 155.835938 -22.476562 161.359375 -31.5 164.609375 -43.03125 C 167.867188 -54.570312 169.5 -67.835938 169.5 -82.828125 L 169.5 -160.921875 C 169.5 -171.765625 168.804688 -180.09375 167.421875 -185.90625 C 166.046875 -191.726562 163.335938 -195.921875 159.296875 -198.484375 C 155.253906 -201.046875 149.09375 -202.722656 140.8125 -203.515625 L 140.8125 -209.4375 C 144.550781 -209.238281 149.476562 -209.039062 155.59375 -208.84375 C 161.707031 -208.644531 167.425781 -208.546875 172.75 -208.546875 C 177.488281 -208.546875 182.171875 -208.644531 186.796875 -208.84375 C 191.429688 -209.039062 195.328125 -209.238281 198.484375 -209.4375 Z M 198.484375 -209.4375 "/></g></g></g><g fill="#2b2b2b" fill-opacity="1"><g transform="translate(478.288932, 850.285683)"><g/></g></g><g fill="#2b2b2b" fill-opacity="1"><g transform="translate(523.251369, 850.285683)"><g><path d="M 85.1875 -231.328125 C 92.09375 -231.328125 98.109375 -230.4375 103.234375 -228.65625 C 108.367188 -226.882812 112.90625 -224.519531 116.84375 -221.5625 C 119.601562 -219.394531 121.96875 -216.382812 123.9375 -212.53125 C 125.914062 -208.6875 126.90625 -204.300781 126.90625 -199.375 C 126.90625 -194.050781 124.976562 -189.316406 121.125 -185.171875 C 117.28125 -181.035156 112.207031 -178.96875 105.90625 -178.96875 C 99.394531 -178.96875 94.019531 -180.835938 89.78125 -184.578125 C 85.539062 -188.328125 83.421875 -193.457031 83.421875 -199.96875 C 83.421875 -205.09375 84.898438 -209.628906 87.859375 -213.578125 C 90.816406 -217.523438 95.15625 -220.285156 100.875 -221.859375 C 100.28125 -223.046875 99.09375 -224.03125 97.3125 -224.8125 C 95.539062 -225.601562 93.175781 -226 90.21875 -226 C 86.28125 -226 83.023438 -225.304688 80.453125 -223.921875 C 77.890625 -222.546875 75.820312 -220.675781 74.25 -218.3125 C 72.082031 -215.351562 70.601562 -211.0625 69.8125 -205.4375 C 69.019531 -199.820312 68.625 -191.195312 68.625 -179.5625 L 68.625 -152.640625 L 100.28125 -152.640625 L 100.28125 -146.71875 L 68.625 -146.71875 L 68.625 -30.46875 C 68.625 -20.800781 71.085938 -14.34375 76.015625 -11.09375 C 80.953125 -7.84375 87.757812 -6.21875 96.4375 -6.21875 L 96.4375 0 C 91.3125 -0.195312 84.113281 -0.441406 74.84375 -0.734375 C 65.570312 -1.035156 55.8125 -1.1875 45.5625 -1.1875 C 38.0625 -1.1875 30.710938 -1.035156 23.515625 -0.734375 C 16.316406 -0.441406 10.84375 -0.195312 7.09375 0 L 7.09375 -6.21875 C 14 -6.21875 18.878906 -7.695312 21.734375 -10.65625 C 24.597656 -13.613281 26.03125 -19.234375 26.03125 -27.515625 L 26.03125 -146.71875 L 5.921875 -146.71875 L 5.921875 -152.640625 L 26.03125 -152.640625 C 26.03125 -164.273438 26.617188 -173.988281 27.796875 -181.78125 C 28.984375 -189.570312 30.957031 -196.226562 33.71875 -201.75 C 36.476562 -207.269531 40.128906 -212.195312 44.671875 -216.53125 C 49.003906 -220.675781 54.769531 -224.175781 61.96875 -227.03125 C 69.164062 -229.894531 76.90625 -231.328125 85.1875 -231.328125 Z M 85.1875 -231.328125 "/></g></g></g><g fill="#2b2b2b" fill-opacity="1"><g transform="translate(603.414891, 850.285683)"><g><path d="M 47.921875 2.078125 C 39.046875 2.078125 31.648438 0.398438 25.734375 -2.953125 C 19.816406 -6.304688 15.476562 -10.789062 12.71875 -16.40625 C 9.957031 -22.03125 8.578125 -28.195312 8.578125 -34.90625 C 8.578125 -43.382812 10.5 -50.285156 14.34375 -55.609375 C 18.1875 -60.929688 23.164062 -65.269531 29.28125 -68.625 C 35.394531 -71.976562 41.851562 -74.738281 48.65625 -76.90625 C 55.457031 -79.082031 61.960938 -81.203125 68.171875 -83.265625 C 74.390625 -85.335938 79.421875 -87.800781 83.265625 -90.65625 C 87.117188 -93.519531 89.046875 -97.222656 89.046875 -101.765625 L 89.046875 -124.828125 C 89.046875 -129.960938 88.207031 -134.550781 86.53125 -138.59375 C 84.851562 -142.632812 82.285156 -145.738281 78.828125 -147.90625 C 75.378906 -150.070312 70.894531 -151.15625 65.375 -151.15625 C 61.425781 -151.15625 57.476562 -150.613281 53.53125 -149.53125 C 49.59375 -148.445312 46.34375 -146.625 43.78125 -144.0625 C 49.300781 -142.09375 53.585938 -139.082031 56.640625 -135.03125 C 59.703125 -130.988281 61.234375 -126.40625 61.234375 -121.28125 C 61.234375 -114.570312 58.914062 -109.242188 54.28125 -105.296875 C 49.644531 -101.359375 44.171875 -99.390625 37.859375 -99.390625 C 30.765625 -99.390625 25.390625 -101.609375 21.734375 -106.046875 C 18.085938 -110.484375 16.265625 -115.859375 16.265625 -122.171875 C 16.265625 -127.890625 17.691406 -132.617188 20.546875 -136.359375 C 23.410156 -140.109375 27.410156 -143.660156 32.546875 -147.015625 C 38.066406 -150.171875 44.71875 -152.632812 52.5 -154.40625 C 60.289062 -156.1875 68.722656 -157.078125 77.796875 -157.078125 C 86.867188 -157.078125 95.050781 -156.140625 102.34375 -154.265625 C 109.644531 -152.390625 115.757812 -148.988281 120.6875 -144.0625 C 125.226562 -139.519531 128.1875 -133.945312 129.5625 -127.34375 C 130.945312 -120.738281 131.640625 -112.40625 131.640625 -102.34375 L 131.640625 -21.890625 C 131.640625 -16.960938 132.128906 -13.5625 133.109375 -11.6875 C 134.097656 -9.8125 135.773438 -8.875 138.140625 -8.875 C 139.921875 -8.875 141.644531 -9.363281 143.3125 -10.34375 C 144.988281 -11.332031 146.816406 -12.519531 148.796875 -13.90625 L 151.75 -8.875 C 147.613281 -5.320312 142.832031 -2.609375 137.40625 -0.734375 C 131.976562 1.140625 125.914062 2.078125 119.21875 2.078125 C 111.914062 2.078125 106.09375 1.039062 101.75 -1.03125 C 97.414062 -3.101562 94.3125 -5.914062 92.4375 -9.46875 C 90.5625 -13.019531 89.625 -17.160156 89.625 -21.890625 C 84.894531 -14.398438 79.175781 -8.53125 72.46875 -4.28125 C 65.769531 -0.0390625 57.585938 2.078125 47.921875 2.078125 Z M 68.921875 -16.859375 C 72.867188 -16.859375 76.46875 -17.796875 79.71875 -19.671875 C 82.976562 -21.546875 86.085938 -24.648438 89.046875 -28.984375 L 89.046875 -89.625 C 87.265625 -86.664062 84.796875 -84.003906 81.640625 -81.640625 C 78.484375 -79.273438 75.128906 -76.859375 71.578125 -74.390625 C 68.035156 -71.929688 64.632812 -69.222656 61.375 -66.265625 C 58.125 -63.304688 55.507812 -59.65625 53.53125 -55.3125 C 51.5625 -50.976562 50.578125 -45.753906 50.578125 -39.640625 C 50.578125 -31.953125 52.253906 -26.234375 55.609375 -22.484375 C 58.960938 -18.734375 63.398438 -16.859375 68.921875 -16.859375 Z M 68.921875 -16.859375 "/></g></g></g><g fill="#2b2b2b" fill-opacity="1"><g transform="translate(732.682307, 850.285683)"><g><path d="M 65.671875 -157.078125 C 73.953125 -157.078125 81.195312 -156.039062 87.40625 -153.96875 C 93.625 -151.894531 98.113281 -149.875 100.875 -147.90625 C 107.582031 -143.375 111.722656 -146.332031 113.296875 -156.78125 L 119.515625 -156.78125 C 119.117188 -151.257812 118.820312 -144.503906 118.625 -136.515625 C 118.425781 -128.523438 118.328125 -117.925781 118.328125 -104.71875 L 112.109375 -104.71875 C 111.128906 -112.007812 109.253906 -119.207031 106.484375 -126.3125 C 103.722656 -133.414062 99.726562 -139.234375 94.5 -143.765625 C 89.28125 -148.296875 82.53125 -150.5625 74.25 -150.5625 C 68.53125 -150.5625 63.695312 -148.9375 59.75 -145.6875 C 55.8125 -142.4375 53.84375 -137.753906 53.84375 -131.640625 C 53.84375 -125.722656 55.613281 -120.546875 59.15625 -116.109375 C 62.707031 -111.671875 67.289062 -107.429688 72.90625 -103.390625 C 78.53125 -99.347656 84.398438 -95.054688 90.515625 -90.515625 C 97.023438 -85.585938 102.941406 -80.707031 108.265625 -75.875 C 113.585938 -71.039062 117.828125 -65.765625 120.984375 -60.046875 C 124.140625 -54.328125 125.71875 -47.523438 125.71875 -39.640625 C 125.71875 -30.765625 123.15625 -23.023438 118.03125 -16.421875 C 112.90625 -9.816406 106.148438 -4.738281 97.765625 -1.1875 C 89.378906 2.363281 80.0625 4.140625 69.8125 4.140625 C 63.894531 4.140625 58.617188 3.546875 53.984375 2.359375 C 49.347656 1.179688 45.351562 -0.296875 42 -2.078125 C 39.4375 -3.253906 37.019531 -4.382812 34.75 -5.46875 C 32.488281 -6.550781 30.367188 -7.488281 28.390625 -8.28125 C 26.421875 -8.875 24.695312 -8.179688 23.21875 -6.203125 C 21.738281 -4.234375 20.601562 -1.472656 19.8125 2.078125 L 13.609375 2.078125 C 14.003906 -4.234375 14.300781 -11.925781 14.5 -21 C 14.695312 -30.070312 14.796875 -42.101562 14.796875 -57.09375 L 21 -57.09375 C 22.1875 -46.445312 24.359375 -37.03125 27.515625 -28.84375 C 30.671875 -20.65625 34.957031 -14.242188 40.375 -9.609375 C 45.800781 -4.972656 52.65625 -2.65625 60.9375 -2.65625 C 64.289062 -2.65625 67.546875 -3.34375 70.703125 -4.71875 C 73.859375 -6.101562 76.46875 -8.375 78.53125 -11.53125 C 80.601562 -14.6875 81.640625 -18.734375 81.640625 -23.671875 C 81.640625 -32.347656 78.828125 -39.546875 73.203125 -45.265625 C 67.585938 -50.984375 60.441406 -57.191406 51.765625 -63.890625 C 45.453125 -69.023438 39.484375 -74.101562 33.859375 -79.125 C 28.242188 -84.15625 23.660156 -89.675781 20.109375 -95.6875 C 16.566406 -101.707031 14.796875 -108.5625 14.796875 -116.25 C 14.796875 -125.125 17.160156 -132.617188 21.890625 -138.734375 C 26.617188 -144.847656 32.878906 -149.429688 40.671875 -152.484375 C 48.460938 -155.546875 56.796875 -157.078125 65.671875 -157.078125 Z M 65.671875 -157.078125 "/></g></g></g><g fill="#2b2b2b" fill-opacity="1"><g transform="translate(845.384537, 850.285683)"><g><path d="M 67.15625 -231.328125 L 67.15625 -129.5625 C 72.082031 -139.820312 78.734375 -146.972656 87.109375 -151.015625 C 95.492188 -155.054688 104.910156 -157.078125 115.359375 -157.078125 C 123.847656 -157.078125 130.65625 -156.039062 135.78125 -153.96875 C 140.90625 -151.894531 144.945312 -149.085938 147.90625 -145.546875 C 151.257812 -141.796875 153.675781 -136.960938 155.15625 -131.046875 C 156.632812 -125.128906 157.375 -117.140625 157.375 -107.078125 L 157.375 -27.515625 C 157.375 -19.234375 158.800781 -13.613281 161.65625 -10.65625 C 164.519531 -7.695312 169.398438 -6.21875 176.296875 -6.21875 L 176.296875 0 C 172.554688 -0.195312 166.890625 -0.441406 159.296875 -0.734375 C 151.703125 -1.035156 144.351562 -1.1875 137.25 -1.1875 C 129.5625 -1.1875 122.117188 -1.035156 114.921875 -0.734375 C 107.722656 -0.441406 102.347656 -0.195312 98.796875 0 L 98.796875 -6.21875 C 104.710938 -6.21875 108.851562 -7.695312 111.21875 -10.65625 C 113.59375 -13.613281 114.78125 -19.234375 114.78125 -27.515625 L 114.78125 -119.515625 C 114.78125 -124.441406 114.285156 -128.726562 113.296875 -132.375 C 112.304688 -136.019531 110.476562 -138.878906 107.8125 -140.953125 C 105.15625 -143.023438 101.363281 -144.0625 96.4375 -144.0625 C 91.113281 -144.0625 86.234375 -142.628906 81.796875 -139.765625 C 77.359375 -136.910156 73.804688 -132.914062 71.140625 -127.78125 C 68.484375 -122.65625 67.15625 -116.742188 67.15625 -110.046875 L 67.15625 -27.515625 C 67.15625 -19.234375 68.335938 -13.613281 70.703125 -10.65625 C 73.066406 -7.695312 77.207031 -6.21875 83.125 -6.21875 L 83.125 0 C 79.570312 -0.195312 74.34375 -0.441406 67.4375 -0.734375 C 60.539062 -1.035156 53.539062 -1.1875 46.4375 -1.1875 C 38.75 -1.1875 31.007812 -1.035156 23.21875 -0.734375 C 15.425781 -0.441406 9.5625 -0.195312 5.625 0 L 5.625 -6.21875 C 12.519531 -6.21875 17.394531 -7.695312 20.25 -10.65625 C 23.113281 -13.613281 24.546875 -19.234375 24.546875 -27.515625 L 24.546875 -195.828125 C 24.546875 -204.703125 23.210938 -211.257812 20.546875 -215.5 C 17.890625 -219.738281 12.914062 -221.859375 5.625 -221.859375 L 5.625 -228.078125 C 11.9375 -227.484375 18.046875 -227.1875 23.953125 -227.1875 C 32.046875 -227.1875 39.738281 -227.53125 47.03125 -228.21875 C 54.332031 -228.90625 61.039062 -229.941406 67.15625 -231.328125 Z M 67.15625 -231.328125 "/></g></g></g><g fill="#2b2b2b" fill-opacity="1"><g transform="translate(1001.274664, 850.285683)"><g><path d="M 48.21875 -229.25 C 56.5 -229.25 63.054688 -227.226562 67.890625 -223.1875 C 72.722656 -219.144531 75.140625 -213.578125 75.140625 -206.484375 C 75.140625 -199.378906 72.722656 -193.804688 67.890625 -189.765625 C 63.054688 -185.722656 56.5 -183.703125 48.21875 -183.703125 C 39.9375 -183.703125 33.378906 -185.722656 28.546875 -189.765625 C 23.710938 -193.804688 21.296875 -199.378906 21.296875 -206.484375 C 21.296875 -213.578125 23.710938 -219.144531 28.546875 -223.1875 C 33.378906 -227.226562 39.9375 -229.25 48.21875 -229.25 Z M 68.625 -156.1875 L 68.625 -27.515625 C 68.625 -19.234375 70.050781 -13.613281 72.90625 -10.65625 C 75.769531 -7.695312 80.65625 -6.21875 87.5625 -6.21875 L 87.5625 0 C 84.007812 -0.195312 78.484375 -0.441406 70.984375 -0.734375 C 63.492188 -1.035156 55.90625 -1.1875 48.21875 -1.1875 C 40.53125 -1.1875 32.738281 -1.035156 24.84375 -0.734375 C 16.957031 -0.441406 11.039062 -0.195312 7.09375 0 L 7.09375 -6.21875 C 14 -6.21875 18.878906 -7.695312 21.734375 -10.65625 C 24.597656 -13.613281 26.03125 -19.234375 26.03125 -27.515625 L 26.03125 -120.6875 C 26.03125 -129.5625 24.695312 -136.117188 22.03125 -140.359375 C 19.375 -144.597656 14.394531 -146.71875 7.09375 -146.71875 L 7.09375 -152.9375 C 13.40625 -152.34375 19.519531 -152.046875 25.4375 -152.046875 C 33.71875 -152.046875 41.457031 -152.390625 48.65625 -153.078125 C 55.851562 -153.773438 62.507812 -154.8125 68.625 -156.1875 Z M 68.625 -156.1875 "/></g></g></g><g fill="#2b2b2b" fill-opacity="1"><g transform="translate(1070.493286, 850.285683)"><g><path d="M 83.421875 -157.078125 C 97.816406 -157.078125 110.4375 -154.414062 121.28125 -149.09375 C 132.125 -143.769531 140.601562 -135.191406 146.71875 -123.359375 C 152.832031 -111.523438 155.890625 -95.84375 155.890625 -76.3125 C 155.890625 -56.789062 152.832031 -41.160156 146.71875 -29.421875 C 140.601562 -17.691406 132.125 -9.164062 121.28125 -3.84375 C 110.4375 1.476562 97.816406 4.140625 83.421875 4.140625 C 69.421875 4.140625 56.945312 1.476562 46 -3.84375 C 35.050781 -9.164062 26.46875 -17.691406 20.25 -29.421875 C 14.039062 -41.160156 10.9375 -56.789062 10.9375 -76.3125 C 10.9375 -95.84375 14.039062 -111.523438 20.25 -123.359375 C 26.46875 -135.191406 35.050781 -143.769531 46 -149.09375 C 56.945312 -154.414062 69.421875 -157.078125 83.421875 -157.078125 Z M 83.421875 -151.15625 C 75.535156 -151.15625 68.925781 -145.285156 63.59375 -133.546875 C 58.269531 -121.816406 55.609375 -102.738281 55.609375 -76.3125 C 55.609375 -49.894531 58.269531 -30.867188 63.59375 -19.234375 C 68.925781 -7.597656 75.535156 -1.78125 83.421875 -1.78125 C 91.503906 -1.78125 98.15625 -7.597656 103.375 -19.234375 C 108.601562 -30.867188 111.21875 -49.894531 111.21875 -76.3125 C 111.21875 -102.738281 108.601562 -121.816406 103.375 -133.546875 C 98.15625 -145.285156 91.503906 -151.15625 83.421875 -151.15625 Z M 83.421875 -151.15625 "/></g></g></g><g fill="#2b2b2b" fill-opacity="1"><g transform="translate(1213.663624, 850.285683)"><g><path d="M 117.140625 -157.078125 C 125.421875 -157.078125 132.175781 -156.039062 137.40625 -153.96875 C 142.632812 -151.894531 146.726562 -149.085938 149.6875 -145.546875 C 152.84375 -141.796875 155.15625 -136.960938 156.625 -131.046875 C 158.101562 -125.128906 158.84375 -117.140625 158.84375 -107.078125 L 158.84375 -27.515625 C 158.84375 -19.234375 160.273438 -13.613281 163.140625 -10.65625 C 166.003906 -7.695312 170.882812 -6.21875 177.78125 -6.21875 L 177.78125 0 C 174.03125 -0.195312 168.410156 -0.441406 160.921875 -0.734375 C 153.429688 -1.035156 146.035156 -1.1875 138.734375 -1.1875 C 131.242188 -1.1875 123.898438 -1.035156 116.703125 -0.734375 C 109.503906 -0.441406 104.03125 -0.195312 100.28125 0 L 100.28125 -6.21875 C 106.195312 -6.21875 110.335938 -7.695312 112.703125 -10.65625 C 115.066406 -13.613281 116.25 -19.234375 116.25 -27.515625 L 116.25 -119.515625 C 116.25 -124.441406 115.753906 -128.726562 114.765625 -132.375 C 113.785156 -136.019531 112.015625 -138.878906 109.453125 -140.953125 C 106.890625 -143.023438 103.039062 -144.0625 97.90625 -144.0625 C 92.582031 -144.0625 87.703125 -142.582031 83.265625 -139.625 C 78.828125 -136.664062 75.273438 -132.570312 72.609375 -127.34375 C 69.953125 -122.125 68.625 -116.257812 68.625 -109.75 L 68.625 -27.515625 C 68.625 -19.234375 69.859375 -13.613281 72.328125 -10.65625 C 74.796875 -7.695312 78.890625 -6.21875 84.609375 -6.21875 L 84.609375 0 C 81.054688 -0.195312 75.875 -0.441406 69.0625 -0.734375 C 62.257812 -1.035156 55.210938 -1.1875 47.921875 -1.1875 C 40.429688 -1.1875 32.738281 -1.035156 24.84375 -0.734375 C 16.957031 -0.441406 11.039062 -0.195312 7.09375 0 L 7.09375 -6.21875 C 14 -6.21875 18.878906 -7.695312 21.734375 -10.65625 C 24.597656 -13.613281 26.03125 -19.234375 26.03125 -27.515625 L 26.03125 -120.6875 C 26.03125 -129.5625 24.695312 -136.117188 22.03125 -140.359375 C 19.375 -144.597656 14.394531 -146.71875 7.09375 -146.71875 L 7.09375 -152.9375 C 13.40625 -152.34375 19.519531 -152.046875 25.4375 -152.046875 C 33.71875 -152.046875 41.457031 -152.390625 48.65625 -153.078125 C 55.851562 -153.773438 62.507812 -154.8125 68.625 -156.1875 L 68.625 -129.5625 C 73.5625 -139.625 80.269531 -146.722656 88.75 -150.859375 C 97.226562 -155.003906 106.691406 -157.078125 117.140625 -157.078125 Z M 117.140625 -157.078125 "/></g></g></g></svg>